<svg width="35" height="28" viewBox="0 0 35 28" fill="none" xmlns="http://www.w3.org/2000/svg">
<g filter="url(#filter0_d)">
<path d="M4 19.9231C4 21.6223 5.34325 23 7 23H28C29.6567 23 31 21.6223 31 19.9231V13H4V19.9231Z" fill="#D00C33"/>
<path d="M28 3H7C5.34325 3 4 4.37769 4 6.07692V13H31V6.07692C31 4.37769 29.6567 3 28 3Z" fill="#EEEEEE"/>
<path d="M14.125 19.1534C17.4387 19.1534 20.125 16.3982 20.125 12.9995C20.125 9.60087 17.4387 6.8457 14.125 6.8457C10.8113 6.8457 8.125 9.60087 8.125 12.9995C8.125 16.3982 10.8113 19.1534 14.125 19.1534Z" fill="#EEEEEE"/>
<path d="M14.125 6.8457C10.8115 6.8457 8.125 9.60109 8.125 12.9995H20.125C20.125 9.60109 17.4385 6.8457 14.125 6.8457Z" fill="#D00C33"/>
</g>
<defs>
<filter id="filter0_d" x="0" y="0" width="35" height="28" filterUnits="userSpaceOnUse" color-interpolation-filters="sRGB">
<feFlood flood-opacity="0" result="BackgroundImageFix"/>
<feColorMatrix in="SourceAlpha" type="matrix" values="0 0 0 0 0 0 0 0 0 0 0 0 0 0 0 0 0 0 127 0"/>
<feOffset dy="1"/>
<feGaussianBlur stdDeviation="2"/>
<feColorMatrix type="matrix" values="0 0 0 0 0 0 0 0 0 0 0 0 0 0 0 0 0 0 0.25 0"/>
<feBlend mode="normal" in2="BackgroundImageFix" result="effect1_dropShadow"/>
<feBlend mode="normal" in="SourceGraphic" in2="effect1_dropShadow" result="shape"/>
</filter>
</defs>
</svg>
