<svg width="35" height="28" viewBox="0 0 35 28" fill="none" xmlns="http://www.w3.org/2000/svg">
<g filter="url(#filter0_d)">
<path d="M11.5 3H7C5.34325 3 4 4.37769 4 6.07692V10.6923H11.5V3ZM28 3H16V10.6923H31V6.07692C31 4.37769 29.6567 3 28 3ZM11.5 23H7C5.34325 23 4 21.6223 4 19.9231V15.3077H11.5V23ZM28 23H16V15.3077H31V19.9231C31 21.6223 29.6567 23 28 23Z" fill="#EF2B2D"/>
<path d="M14.875 3H12.667L12.6483 11.8462H4V14.1538H12.6437L12.625 23H14.875V14.1538H31V11.8462H14.875V3Z" fill="#002868"/>
<path d="M14.875 23H16V15.3077H31V14.1538H14.875V23ZM16 3H14.875V11.8462H31V10.6923H16V3ZM12.625 3H11.5V10.6923H4V11.8462H12.625V3ZM4 14.1538V15.3077H11.5V23H12.625V14.1538H4Z" fill="#EEEEEE"/>
</g>
<defs>
<filter id="filter0_d" x="0" y="0" width="35" height="28" filterUnits="userSpaceOnUse" color-interpolation-filters="sRGB">
<feFlood flood-opacity="0" result="BackgroundImageFix"/>
<feColorMatrix in="SourceAlpha" type="matrix" values="0 0 0 0 0 0 0 0 0 0 0 0 0 0 0 0 0 0 127 0"/>
<feOffset dy="1"/>
<feGaussianBlur stdDeviation="2"/>
<feColorMatrix type="matrix" values="0 0 0 0 0 0 0 0 0 0 0 0 0 0 0 0 0 0 0.25 0"/>
<feBlend mode="normal" in2="BackgroundImageFix" result="effect1_dropShadow"/>
<feBlend mode="normal" in="SourceGraphic" in2="effect1_dropShadow" result="shape"/>
</filter>
</defs>
</svg>
