<svg width="35" height="28" viewBox="0 0 35 28" fill="none" xmlns="http://www.w3.org/2000/svg">
<g filter="url(#filter0_d)">
<path d="M11.083 3H7C5.34325 3 4 4.37769 4 6.07692V10.3077H11.083V3ZM31 10.3077V6.07692C31 4.37769 29.6567 3 28 3H16.375V10.3077H31Z" fill="#EEEEEE"/>
<path d="M31 11.4615V10.3077H16.375V3H15.25V11.4615H31ZM12.25 3H11.083V10.3077H4V11.4615H12.25V3Z" fill="#0065BD"/>
<path d="M4 15.6914V19.9222C4 21.6214 5.34325 22.9991 7 22.9991H11.083V15.6914H4ZM16.375 15.6914V22.9991H28C29.6567 22.9991 31 21.6214 31 19.9222V15.6914H16.375Z" fill="#EEEEEE"/>
<path d="M15.25 11.4615V3H12.25V11.4615H4V14.5385H12.25V23H15.25V14.5385H31V11.4615H15.25Z" fill="#ED2939"/>
<path d="M15.25 14.5391V23.0006H16.375V15.6929H31V14.5391H15.25ZM12.25 14.5391H4V15.6929H11.083V23.0006H12.25V14.5391Z" fill="#0065BD"/>
</g>
<defs>
<filter id="filter0_d" x="0" y="0" width="35" height="28.0006" filterUnits="userSpaceOnUse" color-interpolation-filters="sRGB">
<feFlood flood-opacity="0" result="BackgroundImageFix"/>
<feColorMatrix in="SourceAlpha" type="matrix" values="0 0 0 0 0 0 0 0 0 0 0 0 0 0 0 0 0 0 127 0"/>
<feOffset dy="1"/>
<feGaussianBlur stdDeviation="2"/>
<feColorMatrix type="matrix" values="0 0 0 0 0 0 0 0 0 0 0 0 0 0 0 0 0 0 0.25 0"/>
<feBlend mode="normal" in2="BackgroundImageFix" result="effect1_dropShadow"/>
<feBlend mode="normal" in="SourceGraphic" in2="effect1_dropShadow" result="shape"/>
</filter>
</defs>
</svg>
